<svg width="31" height="30" viewBox="0 0 31 30" fill="none" xmlns="http://www.w3.org/2000/svg">
<path d="M15.0621 14.2833H15.4876V13.8578V11.0583C15.4876 11.0489 15.4875 11.0386 15.4875 11.0275C15.4868 10.7343 15.4846 9.88893 15.9248 9.10567C16.3578 8.33513 17.2657 7.54586 19.3017 7.54586H21.9416V10.2588H20.1145C19.7482 10.2588 19.4236 10.4449 19.2034 10.6555C18.9904 10.8592 18.7904 11.1682 18.7904 11.5056V13.8436V14.2691H19.2158H21.9037C21.8439 14.9879 21.7668 15.6599 21.7002 16.1807C21.6656 16.4514 21.6339 16.6807 21.609 16.8539H19.1999H18.7744V17.2794V27.0252H15.4876V17.2794V16.8539H15.0621H13.4746V14.2833H15.0621Z" fill="#333333" stroke="white" stroke-width="0.850991"/>
<path d="M6.60766 2.88334C5.70848 2.88334 4.84614 3.24053 4.21033 3.87634C3.57452 4.51215 3.21732 5.3745 3.21732 6.27367V24.0627C3.21732 24.9619 3.57452 25.8242 4.21033 26.46C4.84614 27.0958 5.70848 27.453 6.60766 27.453H24.3967C25.2959 27.453 26.1582 27.0958 26.794 26.46C27.4298 25.8242 27.787 24.9619 27.787 24.0627V6.27367C27.787 5.3745 27.4298 4.51215 26.794 3.87634C26.1582 3.24053 25.2959 2.88334 24.3967 2.88334H6.60766ZM6.60766 0.769489H24.3967C25.8565 0.769489 27.2565 1.34939 28.2887 2.38163C29.321 3.41386 29.9009 4.81387 29.9009 6.27367V24.0627C29.9009 25.5225 29.321 26.9225 28.2887 27.9547C27.2565 28.987 25.8565 29.5669 24.3967 29.5669H6.60766C5.14786 29.5669 3.74785 28.987 2.71561 27.9547C1.68338 26.9225 1.10347 25.5225 1.10347 24.0627V6.27367C1.10347 4.81387 1.68338 3.41386 2.71561 2.38163C3.74785 1.34939 5.14786 0.769489 6.60766 0.769489Z" fill="#333333" stroke="white" stroke-width="0.850991"/>
</svg>
