<svg width="24" height="16" viewBox="0 0 24 16" fill="none" xmlns="http://www.w3.org/2000/svg">
<path d="M23 1.06647L22.9985 1.06486L22.9303 0.994796C22.9681 0.957983 23.0284 0.957817 23.0664 0.994563M23 1.06647L23.0698 1.1381L23.0697 1.13814C23.0697 1.13817 23.0697 1.13821 23.0696 1.13824L8.43414 15.3921C8.00704 15.8081 7.3263 15.8081 6.89919 15.3921L0.4922 9.15219C0.143957 8.81303 0.143957 8.25344 0.492199 7.91428C0.827671 7.58755 1.36236 7.58755 1.69783 7.91428L7.03869 13.1159C7.38816 13.4562 7.94515 13.4562 8.2946 13.1158L21.2858 0.46201C21.6295 0.127259 22.1773 0.127438 22.5208 0.462412L23.0664 0.994563M23 1.06647L22.9382 1.12662L22.9271 1.13805L22.9271 1.13803L22.9268 1.13777L23 1.06647ZM23.0664 0.994563L23.0667 0.994876L23.0667 0.994896C23.0666 0.994785 23.0665 0.994674 23.0664 0.994563Z" fill="#2D9CDB" stroke="#2D9CDB" stroke-width="0.2"/>
</svg>
