<svg width="31" height="31" viewBox="0 0 31 31" fill="none" xmlns="http://www.w3.org/2000/svg">
<path d="M15.1746 8.29321C13.8148 8.29321 12.4856 8.69642 11.355 9.45186C10.2244 10.2073 9.34324 11.281 8.82289 12.5373C8.30254 13.7935 8.16639 15.1758 8.43166 16.5095C8.69694 17.8431 9.35172 19.0681 10.3132 20.0296C11.2747 20.9911 12.4997 21.6458 13.8333 21.9111C15.1669 22.1764 16.5493 22.0402 17.8055 21.5199C19.0618 20.9995 20.1355 20.1183 20.8909 18.9878C21.6463 17.8572 22.0496 16.528 22.0496 15.1682C22.0475 13.3455 21.3225 11.598 20.0336 10.3091C18.7448 9.02027 16.9973 8.29528 15.1746 8.29321ZM15.1746 20.7932C14.062 20.7932 12.9745 20.4633 12.0495 19.8452C11.1245 19.2271 10.4035 18.3486 9.97774 17.3208C9.55199 16.293 9.4406 15.162 9.65764 14.0708C9.87468 12.9797 10.4104 11.9774 11.1971 11.1907C11.9838 10.4041 12.986 9.86834 14.0772 9.65129C15.1683 9.43425 16.2993 9.54565 17.3272 9.97139C18.355 10.3971 19.2335 11.1181 19.8516 12.0431C20.4697 12.9682 20.7996 14.0557 20.7996 15.1682C20.7979 16.6595 20.2047 18.0893 19.1502 19.1439C18.0957 20.1984 16.6659 20.7916 15.1746 20.7932ZM22.0496 0.168213H8.29956C6.14543 0.170653 4.08022 1.02746 2.55701 2.55067C1.03381 4.07387 0.177001 6.13908 0.174561 8.29321V22.0432C0.177001 24.1973 1.03381 26.2626 2.55701 27.7858C4.08022 29.309 6.14543 30.1658 8.29956 30.1682H22.0496C24.2037 30.1658 26.2689 29.309 27.7921 27.7858C29.3153 26.2626 30.1721 24.1973 30.1746 22.0432V8.29321C30.1721 6.13908 29.3153 4.07387 27.7921 2.55067C26.2689 1.02746 24.2037 0.170653 22.0496 0.168213ZM28.9246 22.0432C28.9225 23.8659 28.1975 25.6134 26.9086 26.9023C25.6198 28.1912 23.8723 28.9161 22.0496 28.9182H8.29956C6.47683 28.9161 4.72935 28.1912 3.44049 26.9023C2.15162 25.6134 1.42663 23.8659 1.42456 22.0432V8.29321C1.42663 6.47048 2.15162 4.723 3.44049 3.43414C4.72935 2.14527 6.47683 1.42028 8.29956 1.41821H22.0496C23.8723 1.42028 25.6198 2.14527 26.9086 3.43414C28.1975 4.723 28.9225 6.47048 28.9246 8.29321V22.0432ZM24.5496 7.04321C24.5496 7.29044 24.4762 7.53211 24.3389 7.73768C24.2015 7.94324 24.0063 8.10345 23.7779 8.19806C23.5495 8.29267 23.2982 8.31743 23.0557 8.26919C22.8132 8.22096 22.5905 8.10191 22.4157 7.9271C22.2409 7.75228 22.1218 7.52955 22.0736 7.28708C22.0253 7.0446 22.0501 6.79327 22.1447 6.56486C22.2393 6.33645 22.3995 6.14123 22.6051 6.00388C22.8107 5.86652 23.0523 5.79321 23.2996 5.79321C23.631 5.79363 23.9487 5.92546 24.183 6.15979C24.4173 6.39412 24.5491 6.71182 24.5496 7.04321Z" fill="black"/>
</svg>
