<svg width="26" height="27" viewBox="0 0 26 27" fill="none" xmlns="http://www.w3.org/2000/svg">
<path d="M14.5187 22.3049L18.2671 18.5564C18.6098 18.2137 19.1488 18.1661 19.5463 18.4433L25.0534 22.2842C25.564 22.6403 25.6286 23.3714 25.1885 23.8115L23.9143 25.0857C23.2041 25.7959 22.1888 26.1035 21.2265 25.8154C18.5607 25.0174 12.9529 22.9094 8.35997 18.3165C3.76709 13.7236 1.65906 8.11579 0.861066 5.45001C0.573014 4.48774 0.880563 3.47241 1.59082 2.76215L2.86495 1.48802C3.30513 1.04785 4.03617 1.11249 4.39228 1.62307L8.23319 7.13019C8.51041 7.52766 8.46274 8.06669 8.12009 8.40935L4.37162 12.1578" stroke="white" stroke-linecap="round"/>
</svg>
