<svg width="25" height="24" viewBox="0 0 25 24" fill="none" xmlns="http://www.w3.org/2000/svg">
<path d="M13.9259 20.0045L17.2797 16.6506C17.6224 16.308 18.1614 16.2603 18.5589 16.5375L23.4139 19.9236C23.9245 20.2797 23.9891 21.0108 23.5489 21.4509L22.5708 22.4291C21.8605 23.1394 20.8409 23.4461 19.8803 23.1525C17.4036 22.3955 12.4217 20.4733 8.32707 16.3787C4.23248 12.2841 2.3103 7.30219 1.55332 4.82548C1.25972 3.86489 1.56641 2.84528 2.27667 2.13502L3.25484 1.15684C3.69502 0.716672 4.42606 0.781314 4.78217 1.2919L8.16826 6.14689C8.44548 6.54436 8.39781 7.08339 8.05515 7.42605L4.70129 10.7799" stroke="#333333" stroke-linecap="round"/>
</svg>
