<svg width="70" height="70" viewBox="0 0 70 70" fill="none" xmlns="http://www.w3.org/2000/svg">
<path d="M70 0H45.8025L45.8025 30.535H57.9012C58.0933 32.8395 57.9973 35.3361 57.6132 38.0247C57.037 40.9054 56.1728 43.594 55.0206 46.0905C53.8683 48.7792 52.428 51.0837 50.6996 53.0041C48.9712 55.1166 46.8587 56.6529 44.3621 57.6132V70C48.5871 68.8477 52.332 66.9273 55.5967 64.2387C58.8615 61.5501 61.5501 58.3813 63.6626 54.7325C65.775 51.2757 67.4074 47.4348 68.5597 43.2099C69.5199 39.177 70 35.048 70 30.823L70 0ZM25.6379 0L1.44032 0L1.44032 30.535H13.5391C13.7311 32.8395 13.6351 35.3361 13.251 38.0247C12.6749 40.9054 11.8107 43.594 10.6584 46.0905C9.50616 48.7792 8.06583 51.0837 6.33744 53.0041C4.60905 55.1166 2.49657 56.6529 0 57.6132V70C4.22496 68.8477 7.96981 66.9273 11.2346 64.2387C14.4993 61.5501 17.1879 58.3813 19.3004 54.7325C21.4129 51.2757 23.0453 47.4348 24.1975 43.2099C25.1577 39.177 25.6379 35.048 25.6379 30.823V0Z" fill="#2D9CDB" fill-opacity="0.1"/>
</svg>
