<svg width="73" height="92" viewBox="0 0 73 92" fill="none" xmlns="http://www.w3.org/2000/svg">
<path d="M36.4999 50.1875V22.8125" stroke="#333333" stroke-opacity="0.3" stroke-linecap="round"/>
<path d="M45.625 31.9375L36.5 22.8125L27.375 31.9375" stroke="#333333" stroke-opacity="0.3" stroke-linecap="round"/>
<path fill-rule="evenodd" clip-rule="evenodd" d="M36.4999 66.9168C53.2986 66.9168 66.9166 53.2988 66.9166 36.5002C66.9166 19.7015 53.2986 6.0835 36.4999 6.0835C19.7013 6.0835 6.08325 19.7015 6.08325 36.5002C6.08325 53.2988 19.7013 66.9168 36.4999 66.9168Z" stroke="#333333" stroke-opacity="0.3"/>
<path d="M9.216 82.36H12.48C12.96 82.36 13.36 82.2267 13.68 81.96C14 81.6827 14.16 81.288 14.16 80.776C14.16 80.2 14.016 79.7947 13.728 79.56C13.44 79.3253 13.024 79.208 12.48 79.208H9.216V82.36ZM7.216 77.576H12.768C13.792 77.576 14.6133 77.8107 15.232 78.28C15.8507 78.7493 16.16 79.4587 16.16 80.408C16.16 80.984 16.016 81.48 15.728 81.896C15.4507 82.3013 15.0507 82.616 14.528 82.84V82.872C15.232 83.0213 15.7653 83.3573 16.128 83.88C16.4907 84.392 16.672 85.0373 16.672 85.816C16.672 86.264 16.592 86.6853 16.432 87.08C16.272 87.464 16.0213 87.8 15.68 88.088C15.3387 88.3653 14.9013 88.5893 14.368 88.76C13.8347 88.92 13.2 89 12.464 89H7.216V77.576ZM9.216 87.368H12.752C13.36 87.368 13.8293 87.2133 14.16 86.904C14.5013 86.584 14.672 86.136 14.672 85.56C14.672 84.9947 14.5013 84.5627 14.16 84.264C13.8293 83.9547 13.36 83.8 12.752 83.8H9.216V87.368ZM22.2416 82.36H25.5056C25.9856 82.36 26.3856 82.2267 26.7056 81.96C27.0256 81.6827 27.1856 81.288 27.1856 80.776C27.1856 80.2 27.0416 79.7947 26.7536 79.56C26.4656 79.3253 26.0496 79.208 25.5056 79.208H22.2416V82.36ZM20.2416 77.576H25.7936C26.8176 77.576 27.639 77.8107 28.2576 78.28C28.8763 78.7493 29.1856 79.4587 29.1856 80.408C29.1856 80.984 29.0416 81.48 28.7536 81.896C28.4763 82.3013 28.0763 82.616 27.5536 82.84V82.872C28.2576 83.0213 28.791 83.3573 29.1536 83.88C29.5163 84.392 29.6976 85.0373 29.6976 85.816C29.6976 86.264 29.6176 86.6853 29.4576 87.08C29.2976 87.464 29.047 87.8 28.7056 88.088C28.3643 88.3653 27.927 88.5893 27.3936 88.76C26.8603 88.92 26.2256 89 25.4896 89H20.2416V77.576ZM22.2416 87.368H25.7776C26.3856 87.368 26.855 87.2133 27.1856 86.904C27.527 86.584 27.6976 86.136 27.6976 85.56C27.6976 84.9947 27.527 84.5627 27.1856 84.264C26.855 83.9547 26.3856 83.8 25.7776 83.8H22.2416V87.368ZM33.2673 77.576H41.4913V79.304H35.2673V82.296H41.0273V83.928H35.2673V87.272H41.6033V89H33.2673V77.576ZM45.1054 77.576H50.1454C50.956 77.576 51.6174 77.6933 52.1294 77.928C52.6414 78.1627 53.036 78.456 53.3134 78.808C53.5907 79.16 53.7774 79.544 53.8734 79.96C53.98 80.376 54.0334 80.76 54.0334 81.112C54.0334 81.464 53.98 81.848 53.8734 82.264C53.7774 82.6693 53.5907 83.048 53.3134 83.4C53.036 83.752 52.6414 84.0453 52.1294 84.28C51.6174 84.504 50.956 84.616 50.1454 84.616H47.1054V89H45.1054V77.576ZM47.1054 82.984H50.0334C50.2574 82.984 50.4867 82.952 50.7214 82.888C50.956 82.824 51.1694 82.7227 51.3614 82.584C51.564 82.4347 51.724 82.2427 51.8414 82.008C51.9694 81.7627 52.0334 81.4587 52.0334 81.096C52.0334 80.7227 51.98 80.4133 51.8734 80.168C51.7667 79.9227 51.6227 79.7307 51.4414 79.592C51.26 79.4427 51.052 79.3413 50.8174 79.288C50.5827 79.2347 50.332 79.208 50.0654 79.208H47.1054V82.984ZM56.5453 77.576H58.9293L61.5213 81.608L64.2253 77.576H66.4653L62.6893 83.08L66.7373 89H64.3053L61.4573 84.632L58.5613 89H56.2733L60.3213 83.08L56.5453 77.576Z" fill="#333333" fill-opacity="0.3"/>
</svg>
