<svg width="34" height="30" viewBox="0 0 34 30" fill="none" xmlns="http://www.w3.org/2000/svg">
<path d="M26.591 2.27607C28.3385 1.53398 29.4963 1.04236 29.8525 0.896914H29.8597L29.9096 0.875767C30.2544 0.729647 30.6201 0.641016 30.9927 0.613251C31.4071 0.592634 31.8183 0.697979 32.1735 0.91608C32.5951 1.18418 32.9034 1.60233 33.0374 2.08941C33.1688 2.57762 33.1419 3.09176 33.0143 3.66693L33.0142 3.66691L33.0127 3.6742L28.3324 27.9411L28.2969 28.0334L28.2962 28.0352L28.2962 28.0354L28.2961 28.0356L28.2961 28.0356L28.296 28.0357L28.296 28.0359L28.2947 28.0393L28.2871 28.0578C28.28 28.0749 28.2686 28.1011 28.2526 28.1349C28.2207 28.2026 28.1709 28.2999 28.101 28.4139C27.9607 28.6428 27.7427 28.9335 27.4314 29.187L27.4314 29.187C26.8321 29.6754 25.6592 29.9722 24.4888 29.4523L24.4863 29.4512L24.3793 29.4049L18.3436 24.7185L18.1653 24.5801L17.9993 24.733L14.3884 28.0605L14.3542 28.0882L14.3515 28.0902C14.3476 28.0931 14.3409 28.0979 14.3316 28.1044C14.313 28.1173 14.284 28.1366 14.2457 28.1594C14.1688 28.2051 14.0562 28.2642 13.9168 28.315C13.6376 28.4168 13.2619 28.4821 12.8481 28.3553L12.8303 28.3498L12.8118 28.3469L12.811 28.3468C12.7674 28.3399 12.7444 28.3362 12.7242 28.3318C12.7201 28.3295 12.7156 28.327 12.7109 28.3245L12.7133 28.3154C12.6277 28.2898 12.5453 28.2541 12.4678 28.2089C12.3118 28.1086 12.1807 27.9837 12.0664 27.8309L12.0665 27.8308L12.0622 27.8254C11.8163 27.514 11.6087 27.0932 11.3875 26.3791L11.3872 26.3782C11.1485 25.6169 10.4405 23.2738 9.87431 21.3996C9.53242 20.268 9.24218 19.3073 9.13804 18.969L9.09801 18.8389L8.9692 18.795L2.84278 16.7062L2.80093 16.6919H2.79576C2.79011 16.6896 2.78391 16.6872 2.77717 16.6844C2.73673 16.6679 2.67751 16.6425 2.6054 16.6079C2.4606 16.5385 2.26678 16.4335 2.06948 16.2914L2.06942 16.2914C1.67308 16.006 1.15628 15.514 1.05666 14.7051L1.05652 14.7041C0.997327 14.2389 1.15791 13.7784 1.36064 13.4773C1.53495 13.2193 1.759 13 2.01911 12.8325L2.01919 12.8326L2.0267 12.8274C2.24559 12.6756 2.46111 12.564 2.62234 12.4904C2.70266 12.4538 2.76872 12.4269 2.81396 12.4094C2.81411 12.4093 2.81426 12.4093 2.81442 12.4092L2.8151 12.4109L2.89289 12.3804L2.89207 12.3782L2.8975 12.3759L3.1162 12.2825L3.94711 11.9279L6.91966 10.6597C9.3836 9.60861 12.6783 8.20359 16.0011 6.78778L16.0012 6.78776L25.2626 2.8401C25.2626 2.84006 25.2627 2.84003 25.2628 2.84C25.7363 2.639 26.18 2.45061 26.591 2.27607ZM31.1161 2.95013L30.8494 2.94177V2.68468L30.8454 2.68467C30.8323 2.68465 30.8096 2.68461 30.7899 2.68628C30.7754 2.68752 30.7551 2.69013 30.7317 2.69667C30.7073 2.70351 30.6879 2.71227 30.6743 2.71927C30.6683 2.72238 30.6633 2.72518 30.6606 2.72671L30.6549 2.72998L30.6518 2.73168C30.6502 2.73253 30.6424 2.7365 30.6235 2.74396L30.6224 2.7444C30.511 2.78896 28.6012 3.59448 26.0251 4.68937L26.0246 4.68958C23.7791 5.64949 20.9465 6.85695 18.0544 8.08971C17.626 8.27234 17.1962 8.45553 16.7669 8.63855C13.4439 10.0544 10.148 11.4594 7.68275 12.5105L4.70842 13.7788L3.87693 14.1334L3.65806 14.2267L3.60197 14.2507L3.59018 14.2557L3.55861 14.267L3.54307 14.2726L3.52833 14.2801L3.49201 14.2984C3.49004 14.2993 3.48803 14.3001 3.48599 14.3008L2.54323 14.6177L3.48331 14.808L3.50376 14.815L10.6801 17.2604L10.7303 17.5148L11.0586 17.309L26.3237 7.73804L26.3399 7.73031C26.3577 7.72203 26.3836 7.71046 26.4148 7.69807C26.4795 7.67232 26.5561 7.64733 26.6244 7.63676C26.6499 7.63282 26.6687 7.63173 26.682 7.63176C26.6821 7.6388 26.6819 7.64733 26.6812 7.65758L26.6737 7.78196C26.67 7.78732 26.666 7.79305 26.6616 7.79913C26.6198 7.85682 26.5491 7.93847 26.4322 8.04842L26.432 8.04866L14.3171 19.4769L14.2506 19.5397L14.2366 19.6301L13.2956 25.7125L13.1789 26.467L13.74 25.9493L18.0531 21.9705L25.2897 27.5855L25.3192 27.6084L25.3538 27.6223C25.5619 27.7059 25.7263 27.7532 25.8667 27.7502C26.0397 27.7466 26.1417 27.6681 26.2038 27.6182L26.2041 27.6179C26.3289 27.5172 26.3885 27.4071 26.4084 27.3704C26.4106 27.3663 26.4123 27.3632 26.4136 27.361L26.4366 27.3216L26.4453 27.2768L31.0862 3.23941L31.0903 3.21812H31.1161V2.9514V2.95013ZM26.6787 7.603C26.6788 7.60289 26.6792 7.60381 26.6797 7.60604C26.6789 7.60421 26.6786 7.6031 26.6787 7.603Z" fill="#333333" stroke="white" stroke-width="0.533437"/>
</svg>
