<svg width="35" height="29" viewBox="0 0 35 29" fill="none" xmlns="http://www.w3.org/2000/svg">
<path d="M34.4658 0.84137C33.0139 1.84585 31.4064 2.61412 29.7052 3.11659C28.7921 2.08681 27.5786 1.35693 26.2288 1.02566C24.879 0.694388 23.458 0.777716 22.1581 1.26437C20.8582 1.75103 19.742 2.61753 18.9605 3.74669C18.179 4.87584 17.7699 6.21317 17.7885 7.5778V9.06488C15.1242 9.13264 12.4841 8.55305 10.1034 7.37771C7.7227 6.20238 5.6753 4.4678 4.14355 2.32844C4.14355 2.32844 -1.92089 15.7121 11.7241 21.6604C8.60171 23.7393 4.88213 24.7816 1.11133 24.6345C14.7563 32.0699 31.4335 24.6345 31.4335 7.53319C31.4321 7.11897 31.3915 6.70578 31.3122 6.29892C32.8596 4.80218 33.9515 2.91243 34.4658 0.84137Z" fill="white" stroke="#333333" stroke-width="1.06687" stroke-linecap="round" stroke-linejoin="round"/>
</svg>
