<svg width="40" height="28" viewBox="0 0 40 28" fill="none" xmlns="http://www.w3.org/2000/svg">
<mask id="path-1-inside-1" fill="white">
<path d="M0.608887 4.49738C0.608887 3.15531 1.35937 2.43164 2.86035 2.32638L8.64427 2.36585C9.03246 2.36585 9.29124 2.56321 9.42064 2.95794C10.0159 4.93158 10.6822 6.63548 11.4198 8.06966C12.1573 9.50383 13.1213 11.1551 14.3117 13.0235C14.4153 13.2603 14.5835 13.3787 14.8164 13.3787C14.9975 13.3787 15.1399 13.2866 15.2434 13.1024L15.3598 12.6682L15.3987 5.83945C15.3987 5.36578 15.2887 5.04999 15.0687 4.8921C14.8487 4.73421 14.4411 4.61579 13.8459 4.53685C13.3801 4.4579 13.1472 4.16844 13.1472 3.66845C13.1472 3.56319 13.1601 3.48424 13.186 3.43161C13.7295 1.72113 15.2822 0.865889 17.8442 0.865889L20.018 0.826416C21.0014 0.826416 21.8166 1.07641 22.4636 1.5764C23.1106 2.07638 23.434 2.86584 23.434 3.94476V12.9051C23.6152 13.0366 23.7834 13.1024 23.9387 13.1024C24.3269 13.1024 24.6633 12.8656 24.948 12.3919C27.7946 8.33939 29.3344 5.62893 29.5673 4.26054C29.5673 4.23423 29.5932 4.16844 29.645 4.06318C29.8261 3.66845 30.1237 3.32635 30.5378 3.03689C30.9518 2.74742 31.3142 2.55006 31.6247 2.4448C31.7282 2.39217 31.8447 2.36585 31.9741 2.36585H37.9909L38.3791 2.40532C38.8967 2.40532 39.2978 2.65532 39.5824 3.15531C39.686 3.3132 39.7571 3.48424 39.7959 3.66845C39.8348 3.85266 39.8606 4.03686 39.8736 4.22107C39.8865 4.40527 39.893 4.51053 39.893 4.53685V4.81316C39.7118 5.89208 39.2525 7.04337 38.5149 8.26702C37.7774 9.49067 36.8393 10.813 35.7006 12.234C34.562 13.655 33.8503 14.5892 33.5656 15.0366C33.3327 15.3524 33.2162 15.6418 33.2162 15.905C33.2162 16.1155 33.3198 16.3523 33.5268 16.6155L39.1943 23.8785C39.5048 24.2995 39.6601 24.76 39.6601 25.26C39.6601 25.8653 39.4272 26.3652 38.9614 26.76C38.4955 27.1547 37.9391 27.3784 37.2922 27.431L36.6323 27.4705H30.7319C30.706 27.4705 30.6542 27.4771 30.5766 27.4902C30.499 27.5034 30.4472 27.51 30.4213 27.51C29.852 27.51 29.3215 27.26 28.8298 26.76C28.6486 26.5495 27.4323 24.9969 25.1809 22.1022C25.0515 21.918 24.8703 21.7469 24.6374 21.5891C24.5339 22.0101 24.398 22.6153 24.2298 23.4048C24.0616 24.1943 23.9387 24.76 23.861 25.1021L23.7446 25.7732C23.4858 26.6942 22.9423 27.2468 22.1142 27.431L21.5708 27.4705H17.7666C15.6186 27.4705 13.4771 26.4705 11.3421 24.4706C9.20714 22.4706 7.28563 19.8851 5.57763 16.7142C3.86962 13.5432 2.27807 9.85251 0.802978 5.64209C0.673584 5.29999 0.608887 4.91842 0.608887 4.49738ZM23.9387 14.7208C23.3952 14.7208 22.9035 14.5695 22.4636 14.2669C22.0236 13.9642 21.8037 13.5498 21.8037 13.0235V3.94476C21.8037 3.41846 21.6743 3.04347 21.4155 2.81979C21.1567 2.59611 20.7038 2.48427 20.0568 2.48427L17.8442 2.56321C16.7314 2.56321 15.8904 2.76058 15.321 3.15531C16.4597 3.70792 17.029 4.60264 17.029 5.83945V12.7866C16.9773 13.4445 16.7185 13.9906 16.2527 14.4248C15.7868 14.859 15.2693 15.0761 14.6999 15.0761C13.9236 15.0761 13.3283 14.6945 12.9143 13.9314C10.8957 10.8262 9.39476 7.87887 8.41136 5.08947L8.062 4.06318L2.89917 4.0237C2.56274 4.0237 2.37512 4.04344 2.3363 4.08291C2.29748 4.12239 2.27807 4.23423 2.27807 4.41843C2.27807 4.65527 2.30395 4.90526 2.35571 5.16841L3.17089 7.37888C5.34472 13.0893 7.70616 17.5892 10.2552 20.8785C12.8043 24.1679 15.3081 25.8126 17.7666 25.8126H21.6484C21.8037 25.8126 21.9201 25.7666 21.9978 25.6745C22.0754 25.5824 22.1401 25.4047 22.1919 25.1416L22.2695 24.7469L23.007 21.2733C23.2141 20.7996 23.3952 20.4838 23.5505 20.3259C23.8352 20.0365 24.1716 19.8917 24.5598 19.8917C25.1809 19.8917 25.8149 20.2733 26.4619 21.0364L29.7614 25.2995C29.9685 25.6416 30.1884 25.8126 30.4213 25.8126H36.8264C37.6027 25.8126 37.9909 25.6153 37.9909 25.2205C37.9909 25.089 37.9521 24.9574 37.8744 24.8258L32.2458 17.6813C31.8059 17.1286 31.5859 16.5365 31.5859 15.905C31.5859 15.2734 31.7929 14.6682 32.207 14.0892C32.5434 13.5629 33.1968 12.688 34.1673 11.4643C35.1378 10.2407 35.9853 9.09595 36.7099 8.03018C37.4345 6.96442 37.9133 5.99734 38.1462 5.12894L38.2626 4.61579C38.2367 4.56316 38.2238 4.47764 38.2238 4.35922C38.2238 4.2408 38.2109 4.14212 38.185 4.06318H32.0905C31.7023 4.22107 31.3918 4.4579 31.1589 4.77369L30.926 5.52367C30.279 7.33941 28.5839 10.142 25.8408 13.9314C25.2973 14.4577 24.6633 14.7208 23.9387 14.7208Z"/>
</mask>
<path d="M0.608887 4.49738C0.608887 3.15531 1.35937 2.43164 2.86035 2.32638L8.64427 2.36585C9.03246 2.36585 9.29124 2.56321 9.42064 2.95794C10.0159 4.93158 10.6822 6.63548 11.4198 8.06966C12.1573 9.50383 13.1213 11.1551 14.3117 13.0235C14.4153 13.2603 14.5835 13.3787 14.8164 13.3787C14.9975 13.3787 15.1399 13.2866 15.2434 13.1024L15.3598 12.6682L15.3987 5.83945C15.3987 5.36578 15.2887 5.04999 15.0687 4.8921C14.8487 4.73421 14.4411 4.61579 13.8459 4.53685C13.3801 4.4579 13.1472 4.16844 13.1472 3.66845C13.1472 3.56319 13.1601 3.48424 13.186 3.43161C13.7295 1.72113 15.2822 0.865889 17.8442 0.865889L20.018 0.826416C21.0014 0.826416 21.8166 1.07641 22.4636 1.5764C23.1106 2.07638 23.434 2.86584 23.434 3.94476V12.9051C23.6152 13.0366 23.7834 13.1024 23.9387 13.1024C24.3269 13.1024 24.6633 12.8656 24.948 12.3919C27.7946 8.33939 29.3344 5.62893 29.5673 4.26054C29.5673 4.23423 29.5932 4.16844 29.645 4.06318C29.8261 3.66845 30.1237 3.32635 30.5378 3.03689C30.9518 2.74742 31.3142 2.55006 31.6247 2.4448C31.7282 2.39217 31.8447 2.36585 31.9741 2.36585H37.9909L38.3791 2.40532C38.8967 2.40532 39.2978 2.65532 39.5824 3.15531C39.686 3.3132 39.7571 3.48424 39.7959 3.66845C39.8348 3.85266 39.8606 4.03686 39.8736 4.22107C39.8865 4.40527 39.893 4.51053 39.893 4.53685V4.81316C39.7118 5.89208 39.2525 7.04337 38.5149 8.26702C37.7774 9.49067 36.8393 10.813 35.7006 12.234C34.562 13.655 33.8503 14.5892 33.5656 15.0366C33.3327 15.3524 33.2162 15.6418 33.2162 15.905C33.2162 16.1155 33.3198 16.3523 33.5268 16.6155L39.1943 23.8785C39.5048 24.2995 39.6601 24.76 39.6601 25.26C39.6601 25.8653 39.4272 26.3652 38.9614 26.76C38.4955 27.1547 37.9391 27.3784 37.2922 27.431L36.6323 27.4705H30.7319C30.706 27.4705 30.6542 27.4771 30.5766 27.4902C30.499 27.5034 30.4472 27.51 30.4213 27.51C29.852 27.51 29.3215 27.26 28.8298 26.76C28.6486 26.5495 27.4323 24.9969 25.1809 22.1022C25.0515 21.918 24.8703 21.7469 24.6374 21.5891C24.5339 22.0101 24.398 22.6153 24.2298 23.4048C24.0616 24.1943 23.9387 24.76 23.861 25.1021L23.7446 25.7732C23.4858 26.6942 22.9423 27.2468 22.1142 27.431L21.5708 27.4705H17.7666C15.6186 27.4705 13.4771 26.4705 11.3421 24.4706C9.20714 22.4706 7.28563 19.8851 5.57763 16.7142C3.86962 13.5432 2.27807 9.85251 0.802978 5.64209C0.673584 5.29999 0.608887 4.91842 0.608887 4.49738ZM23.9387 14.7208C23.3952 14.7208 22.9035 14.5695 22.4636 14.2669C22.0236 13.9642 21.8037 13.5498 21.8037 13.0235V3.94476C21.8037 3.41846 21.6743 3.04347 21.4155 2.81979C21.1567 2.59611 20.7038 2.48427 20.0568 2.48427L17.8442 2.56321C16.7314 2.56321 15.8904 2.76058 15.321 3.15531C16.4597 3.70792 17.029 4.60264 17.029 5.83945V12.7866C16.9773 13.4445 16.7185 13.9906 16.2527 14.4248C15.7868 14.859 15.2693 15.0761 14.6999 15.0761C13.9236 15.0761 13.3283 14.6945 12.9143 13.9314C10.8957 10.8262 9.39476 7.87887 8.41136 5.08947L8.062 4.06318L2.89917 4.0237C2.56274 4.0237 2.37512 4.04344 2.3363 4.08291C2.29748 4.12239 2.27807 4.23423 2.27807 4.41843C2.27807 4.65527 2.30395 4.90526 2.35571 5.16841L3.17089 7.37888C5.34472 13.0893 7.70616 17.5892 10.2552 20.8785C12.8043 24.1679 15.3081 25.8126 17.7666 25.8126H21.6484C21.8037 25.8126 21.9201 25.7666 21.9978 25.6745C22.0754 25.5824 22.1401 25.4047 22.1919 25.1416L22.2695 24.7469L23.007 21.2733C23.2141 20.7996 23.3952 20.4838 23.5505 20.3259C23.8352 20.0365 24.1716 19.8917 24.5598 19.8917C25.1809 19.8917 25.8149 20.2733 26.4619 21.0364L29.7614 25.2995C29.9685 25.6416 30.1884 25.8126 30.4213 25.8126H36.8264C37.6027 25.8126 37.9909 25.6153 37.9909 25.2205C37.9909 25.089 37.9521 24.9574 37.8744 24.8258L32.2458 17.6813C31.8059 17.1286 31.5859 16.5365 31.5859 15.905C31.5859 15.2734 31.7929 14.6682 32.207 14.0892C32.5434 13.5629 33.1968 12.688 34.1673 11.4643C35.1378 10.2407 35.9853 9.09595 36.7099 8.03018C37.4345 6.96442 37.9133 5.99734 38.1462 5.12894L38.2626 4.61579C38.2367 4.56316 38.2238 4.47764 38.2238 4.35922C38.2238 4.2408 38.2109 4.14212 38.185 4.06318H32.0905C31.7023 4.22107 31.3918 4.4579 31.1589 4.77369L30.926 5.52367C30.279 7.33941 28.5839 10.142 25.8408 13.9314C25.2973 14.4577 24.6633 14.7208 23.9387 14.7208Z" fill="#333333" stroke="white" stroke-width="0.426749" mask="url(#path-1-inside-1)"/>
</svg>
