<svg width="31" height="31" viewBox="0 0 31 31" fill="none" xmlns="http://www.w3.org/2000/svg">
<path d="M15.9923 0.168213C13.3664 0.168902 10.7867 0.858786 8.51096 2.16891C6.23524 3.47904 4.34323 5.36352 3.02404 7.63401C1.70486 9.90449 1.0047 12.4815 0.993544 15.1073C0.98239 17.7332 1.66063 20.316 2.96048 22.5976L1.60983 27.3247C1.52168 27.6333 1.51766 27.9599 1.59819 28.2706C1.67872 28.5813 1.84087 28.8648 2.06783 29.0918C2.2948 29.3187 2.57832 29.4808 2.88902 29.5614C3.19973 29.6419 3.52631 29.6378 3.83492 29.5497L8.56214 28.1991C10.5579 29.337 12.7884 30.0012 15.0815 30.1406C17.3746 30.28 19.6691 29.8907 21.7879 29.003C23.9068 28.1152 25.7934 26.7526 27.3024 25.0203C28.8113 23.288 29.9021 21.2322 30.4907 19.0115C31.0793 16.7909 31.15 14.4647 30.6973 12.2124C30.2446 9.96013 29.2807 7.84191 27.8797 6.02115C26.4788 4.20039 24.6784 2.72575 22.6173 1.71095C20.5563 0.696164 18.2897 0.168346 15.9923 0.168213ZM15.9923 28.9662C13.514 28.9679 11.0812 28.3012 8.95001 27.0363C8.87975 26.9944 8.80166 26.9674 8.72056 26.9569C8.63946 26.9464 8.55707 26.9526 8.47845 26.9751L3.50525 28.3959C3.40238 28.4253 3.29353 28.4266 3.18998 28.3998C3.08643 28.3729 2.99194 28.3189 2.91631 28.2432C2.84067 28.1676 2.78664 28.0731 2.75981 27.9695C2.73297 27.8659 2.73432 27.7571 2.7637 27.6542L4.1844 22.6812C4.20686 22.6026 4.21302 22.5202 4.2025 22.4391C4.19198 22.358 4.16499 22.2799 4.1232 22.2096C2.56898 19.5911 1.92443 16.5321 2.28995 13.5091C2.65547 10.4861 4.01054 7.66882 6.14406 5.4962C8.27758 3.32358 11.0698 1.91759 14.0856 1.49725C17.1015 1.07691 20.1717 1.66582 22.818 3.17224C25.4643 4.67866 27.5381 7.01801 28.7163 9.82586C29.8945 12.6337 30.111 15.7524 29.332 18.6961C28.553 21.6398 26.8223 24.2432 24.4096 26.1008C21.9968 27.9584 19.0373 28.9658 15.9923 28.9662ZM23.5686 17.9484L20.4998 16.1949C20.2222 16.0364 19.9074 15.9547 19.5877 15.9581C19.2681 15.9615 18.9551 16.0499 18.6809 16.2142L16.61 17.4568C15.3564 16.8216 14.338 15.8031 13.7029 14.5495L14.9454 12.4786C15.1097 12.2044 15.1981 11.8914 15.2014 11.5717C15.2048 11.2521 15.1231 10.9373 14.9646 10.6597L13.2112 7.59089C13.068 7.34106 12.8615 7.13341 12.6124 6.98888C12.3633 6.84436 12.0806 6.76809 11.7926 6.76775C10.5229 6.76806 9.30496 7.27137 8.40544 8.16752C7.50591 9.06367 6.99803 10.2797 6.99295 11.5494C6.99061 13.2055 7.31475 14.8457 7.94686 16.3764C8.57896 17.907 9.50662 19.298 10.6768 20.4699C11.8469 21.6417 13.2366 22.5714 14.7664 23.2057C16.2961 23.84 17.9359 24.1665 19.5919 24.1665H19.6099C20.8797 24.1615 22.0957 23.6536 22.9919 22.7541C23.8881 21.8546 24.3914 20.6366 24.3917 19.3669C24.3914 19.0789 24.3151 18.7962 24.1706 18.5471C24.0261 18.2981 23.8184 18.0916 23.5686 17.9484ZM19.6083 22.9666H19.5921C18.0938 22.9666 16.6101 22.6712 15.2261 22.0974C13.842 21.5235 12.5847 20.6824 11.5259 19.6222C10.4672 18.562 9.62789 17.3034 9.05597 15.9186C8.48405 14.5337 8.19076 13.0497 8.19287 11.5514C8.19699 10.5994 8.57809 9.68784 9.25274 9.0162C9.92739 8.34455 10.8406 7.96754 11.7926 7.96767C11.8691 7.96776 11.9442 7.98801 12.0103 8.02638C12.0765 8.06474 12.1313 8.11987 12.1694 8.1862L13.9228 11.2551C13.9756 11.3477 14.0028 11.4526 14.0017 11.5591C14.0006 11.6657 13.9712 11.77 13.9165 11.8614L12.5081 14.2084C12.4583 14.2914 12.4293 14.3852 12.4236 14.4818C12.4179 14.5784 12.4357 14.675 12.4754 14.7632C13.2585 16.506 14.6536 17.9011 16.3964 18.6841C16.4846 18.7239 16.5812 18.7416 16.6778 18.7359C16.7744 18.7302 16.8682 18.7012 16.9512 18.6514L19.2981 17.243C19.3895 17.1883 19.4939 17.1588 19.6004 17.1577C19.707 17.1565 19.8119 17.1838 19.9045 17.2366L22.9733 18.9902C23.0396 19.0282 23.0948 19.0831 23.1331 19.1492C23.1715 19.2153 23.1917 19.2904 23.1918 19.3669C23.1919 20.3188 22.8149 21.232 22.1433 21.9067C21.4717 22.5813 20.5602 22.9625 19.6083 22.9666Z" fill="black"/>
</svg>
